<svg width="12" height="10" viewBox="0 0 12 10" fill="none" xmlns="http://www.w3.org/2000/svg">
<path d="M2.91027 4.45413C2.91027 3.82504 2.4003 3.31507 1.77121 3.31507C1.14212 3.31507 0.632147 3.82504 0.632147 4.45413V8.84749C0.632147 9.47658 1.14212 9.98655 1.77121 9.98655C2.4003 9.98655 2.91027 9.47658 2.91027 8.84749V4.45413Z" fill="#3C50E0"/>
<path d="M2.52728 0.201635C2.31016 0.0701661 2.055 3.99915e-06 1.79399 1.70346e-10C1.61983 -2.66581e-06 1.44739 0.0312427 1.28659 0.0919395C1.12578 0.152636 0.979781 0.241586 0.856987 0.353675C0.734191 0.465763 0.637023 0.598778 0.571069 0.74507C0.505115 0.891361 0.471677 1.04804 0.472678 1.2061C0.474178 1.44299 0.552945 1.67416 0.699042 1.87046C0.845138 2.06677 1.05202 2.2194 1.29359 2.30911C1.53515 2.39882 1.80058 2.42158 2.05639 2.37454C2.3122 2.32749 2.54692 2.21274 2.73095 2.04475C2.91498 1.87677 3.04007 1.66308 3.09044 1.43064C3.14081 1.19821 3.11421 0.957443 3.01398 0.738716C2.91375 0.51999 2.7444 0.333104 2.52728 0.201635Z" fill="#3C50E0"/>
<path d="M6.56709 3.52184C6.56709 3.40746 6.47437 3.31473 6.35998 3.31473H5.46917C4.8633 3.31473 4.37194 3.80553 4.37126 4.4114L4.3662 8.86029C4.36549 9.48953 4.87538 10 5.50462 10C6.13335 10 6.64303 9.49031 6.64303 8.86159V6.69872C6.64303 5.83032 6.82528 4.98949 8.0099 4.98949C9.19453 4.98949 9.19453 5.98884 9.19453 6.76074V8.84715C9.19453 9.47624 9.70451 9.98622 10.3336 9.98622C10.9627 9.98622 11.4727 9.47624 11.4727 8.84715V6.32655C11.4727 4.52773 11.0094 3.14932 8.73131 3.14932C8.29712 3.1339 7.86646 3.22577 7.48529 3.41512C7.32277 3.49586 7.17185 3.59303 7.03516 3.70432C6.87502 3.83469 6.56709 3.72834 6.56709 3.52184Z" fill="#3C50E0"/>
</svg>
