<svg width="12" height="9" viewBox="0 0 12 9" fill="none" xmlns="http://www.w3.org/2000/svg">
<path d="M11.2031 1.00421C11.1551 1.0262 11.1056 1.04803 11.0549 1.06952C10.7813 1.18536 10.6365 0.814726 10.8337 0.592561C11.0026 0.402359 10.7815 0.221563 10.5453 0.315948C10.2937 0.416529 10.0254 0.506836 9.78287 0.573474C9.58695 0.627305 9.38508 0.552386 9.2238 0.428808C8.83876 0.133773 8.35017 0 7.81925 0C6.57258 0 5.70312 1.09184 5.70312 2.36842C5.70312 2.89164 5.2733 3.32308 4.76585 3.19563C3.6668 2.91959 2.62518 2.20025 1.78449 1.37683C1.36805 0.968945 0.662748 1.05461 0.664208 1.63753C0.664208 2.16743 0.953877 2.70216 1.31797 3.13211C1.50244 3.34995 1.36432 3.6339 1.10086 3.52401C0.938644 3.45635 0.791423 3.3865 0.684953 3.32871C0.674317 3.32294 0.661458 3.33069 0.661458 3.34279C0.661458 4.09255 1.00189 4.68133 1.53596 5.05262C1.74665 5.19909 1.95651 5.62085 1.70197 5.65324C1.53783 5.67413 1.20557 5.84582 1.29594 5.98443C1.42271 6.17884 1.60446 6.34854 1.81945 6.49308C2.42857 6.9026 2.60643 7.78368 1.88648 7.92649C1.46545 8.01 1.04268 8.05263 0.661458 8.05263C0.547954 8.05263 0.498623 8.22052 0.59935 8.27284C1.55171 8.76751 2.75658 9 3.86979 9C8.02092 9 10.2865 5.72305 10.2865 2.66684C10.2865 2.33285 10.4535 2.02331 10.6728 1.77145C10.8671 1.54838 11.0101 1.30248 11.2031 1.00421Z" fill="#3C50E0"/>
</svg>
